<svg width="68" height="61" viewBox="0 0 68 61" fill="none" xmlns="http://www.w3.org/2000/svg">
<path d="M34 0C29.5351 0 25.1138 0.788991 20.9887 2.32166C16.8636 3.8545 13.1156 6.10105 9.95831 8.93319C6.80117 11.7655 4.29682 15.1277 2.58808 18.8281C0.879531 22.5285 0 26.4947 0 30.5C0 34.5053 0.879531 38.4715 2.58808 42.1719C4.29682 45.8723 6.80117 49.2345 9.95831 52.0668C13.1156 54.899 16.8636 57.1455 20.9887 58.6783C25.1138 60.211 29.5351 61 34 61V45.75C31.7675 45.75 29.5569 45.3556 27.4943 44.5891C25.4318 43.8228 23.5577 42.6995 21.9792 41.2834C20.4006 39.8673 19.1484 38.1862 18.2941 36.336C17.4397 34.4857 17 32.5027 17 30.5C17 28.4973 17.4397 26.5143 18.2941 24.664C19.1484 22.8138 20.4006 21.1327 21.9792 19.7166C23.5577 18.3005 25.4318 17.1772 27.4943 16.4109C29.5569 15.6444 31.7675 15.25 34 15.25V0Z" fill="#5BD0F4"/>
<path d="M34.0003 40.6666C40.2596 40.6666 45.3335 36.1149 45.3335 30.5C45.3335 24.885 40.2596 20.3334 34.0003 20.3334C27.741 20.3334 22.667 24.885 22.667 30.5C22.667 36.1149 27.741 40.6666 34.0003 40.6666Z" fill="#5BD0F4"/>
<path d="M0 30.5C0 34.5053 0.879531 38.4715 2.58808 42.1719C4.29682 45.8723 6.80117 49.2345 9.95831 52.0668C13.1156 54.899 16.8636 57.1455 20.9887 58.6783C25.1138 60.211 29.5351 61 34 61C38.4649 61 42.8862 60.211 47.0113 58.6783C51.1364 57.1455 54.8844 54.899 58.0417 52.0668C61.1988 49.2345 63.7032 45.8723 65.4119 42.1719C67.1205 38.4715 68 34.5053 68 30.5H51C51 32.5027 50.5603 34.4857 49.7059 36.336C48.8516 38.1862 47.5994 39.8673 46.0208 41.2834C44.4423 42.6995 42.5682 43.8227 40.5057 44.5891C38.4431 45.3556 36.2325 45.75 34 45.75C31.7675 45.75 29.5569 45.3556 27.4943 44.5891C25.4318 43.8227 23.5577 42.6995 21.9792 41.2834C20.4006 39.8673 19.1484 38.1862 18.2941 36.336C17.4397 34.4857 17 32.5027 17 30.5H0Z" fill="#192657"/>
<path d="M45.3335 30.5C45.3335 27.8036 44.1394 25.2178 42.0141 23.3111C39.8886 21.4044 37.006 20.3332 34.0002 20.3332C30.9944 20.3332 28.1118 21.4044 25.9863 23.3111C23.8608 25.2178 22.6667 27.8036 22.6667 30.5H34.0002H45.3335Z" fill="#192657"/>
</svg>
